<svg width="67" height="79" viewBox="0 0 67 79" fill="none" xmlns="http://www.w3.org/2000/svg">
<path d="M8.28782 0L29.0073 0L29.0073 41.3555C29.0073 42.2241 30.0121 42.7071 30.6905 42.1644L39.3671 35.2231L48.0436 42.1644C48.722 42.7071 49.7268 42.2241 49.7268 41.3554L49.7268 0C54.304 0 58.0146 3.71058 58.0146 8.2878L58.0146 62.1585C58.0145 66.7357 54.304 70.4463 49.7268 70.4463H6.21585L10.3597 74.5902H51.7987C57.5202 74.5902 62.1584 69.952 62.1585 64.2304L62.1585 12.4317C64.4471 12.4317 66.3024 14.287 66.3024 16.5756L66.3024 64.2304C66.3024 72.2406 59.8088 78.7341 51.7987 78.7341H10.0043C8.90523 78.7341 7.85121 78.2975 7.07408 77.5204L1.21372 71.66C0.436587 70.8829 0 69.8288 0 68.7298L2.17356e-05 8.28779C2.17356e-05 3.71057 3.71059 0 8.28782 0Z" fill="#2B2B2B"/>
</svg>
