<svg width="46" height="46" viewBox="0 0 46 46" fill="none" xmlns="http://www.w3.org/2000/svg">
<path d="M27.1499 35.8184L19.2502 36.042M27.1499 35.8184C28.5046 35.8184 30.0362 34.7804 30.0362 32.7043C30.0362 30.9844 29.0741 29.6606 27.1499 29.5901C21.834 29.5901 16.4495 29.5028 11.0702 29.5673C10.0679 29.5793 9.09413 29.9178 8.27644 30.5303L3.97253 33.7539C1.20135 35.8295 1.17097 39.3042 3.91253 41.4233L5.3649 42.5459C6.72115 43.5942 8.53432 43.7013 9.99275 42.8193C10.6366 42.4299 11.3656 42.2251 12.1074 42.2251L32.5876 42.2254C34.0701 42.2254 39.0672 36.0925 41.4347 31.6527C42.2388 29.9396 44.149 27.514 43.1127 25.5462C42.0996 23.6225 39.5951 24.3103 38.1415 25.871L32.4905 33.0606C31.5453 34.2632 30.1423 35.8184 28.6628 35.8184H27.1499ZM22.6443 13.125C23.3261 13.125 24.0013 13.2497 24.6313 13.492C25.2612 13.7343 25.8336 14.0895 26.3157 14.5372C26.7979 14.9849 27.1803 15.5164 27.4413 16.1013C27.7022 16.6863 27.8365 17.3133 27.8365 17.9464C27.8365 18.5796 27.7022 19.2065 27.4413 19.7915C27.1803 20.3765 26.7979 20.908 26.3157 21.3557C26.0021 21.6469 25.6503 21.899 25.2693 22.1063M22.6443 13.125C21.9624 13.125 21.2874 13.0003 20.6575 12.758C20.0275 12.5157 19.4551 12.1606 18.973 11.7129C18.4908 11.2652 18.1084 10.7336 17.8474 10.1487C17.5865 9.56372 17.4522 8.93676 17.4522 8.3036C17.4522 7.67044 17.5865 7.04348 17.8474 6.45852C18.1084 5.87356 18.4908 5.34205 18.973 4.89433C19.4551 4.44662 20.0275 4.09148 20.6575 3.84918C21.2874 3.6069 21.9626 3.48219 22.6444 3.48217M22.6443 13.125V22.7679M22.6443 13.125L22.6444 3.48217M25.2693 22.1063C25.152 22.1701 25.032 22.2297 24.9094 22.2849C24.818 22.326 24.7253 22.3647 24.6313 22.4008C24.4344 22.4766 24.2331 22.5408 24.0286 22.5933M25.2693 22.1063C25.4549 22.0053 25.6339 21.8936 25.8052 21.7715C26.3462 21.386 26.8001 20.9054 27.141 20.3571C27.4819 19.8088 27.7032 19.2035 27.7922 18.5757C27.8812 17.948 27.8362 17.3101 27.6597 16.6985M24.0286 22.5933C23.5787 22.7089 23.1131 22.7679 22.6443 22.7679M24.0286 22.5933L23.9882 22.6035C23.549 22.7128 23.0971 22.7679 22.6443 22.7679M22.6443 22.7679C22.4182 22.7679 22.1918 22.7541 21.9667 22.7266C21.2907 22.6439 20.6388 22.4384 20.0483 22.1219C19.4578 21.8053 18.9402 21.3838 18.5251 20.8815C18.11 20.3792 17.8056 19.8059 17.6291 19.1943M22.6443 22.7679V24.375M22.6444 3.48217C22.8706 3.48217 23.0968 3.49586 23.322 3.52339C23.998 3.60603 24.6499 3.81151 25.2404 4.12809C25.8309 4.44467 26.3485 4.86615 26.7636 5.36847C27.1786 5.87079 27.4831 6.44411 27.6596 7.05569M22.6444 3.48217C22.1916 3.48217 21.7397 3.53714 21.3004 3.64643C20.6418 3.8103 20.0244 4.09303 19.4835 4.47848C18.9425 4.86392 18.4886 5.34453 18.1477 5.89286C17.8068 6.44119 17.5855 7.04651 17.4965 7.67425C17.4075 8.30199 17.4525 8.93986 17.629 9.55145M22.6444 3.48217L22.6443 1.875" stroke="black" stroke-width="3.75" stroke-linecap="round" stroke-linejoin="round"/>
</svg>
