<svg width="100" height="100" viewBox="0 0 100 100" fill="none" xmlns="http://www.w3.org/2000/svg">
<path d="M33.3332 33.3333H29.1665V37.5H33.3332V33.3333Z" fill="#2B2B2B"/>
<path d="M29.1665 50H33.3332V54.1667H29.1665V50Z" fill="#2B2B2B"/>
<path fill-rule="evenodd" clip-rule="evenodd" d="M70.8332 12.5L24.9998 12.5C20.3975 12.5 16.6665 16.231 16.6665 20.8333L16.6665 75C16.6665 79.6024 20.3975 83.3333 24.9998 83.3333H51.2117C50.0763 82.5735 49.0505 81.5861 48.2042 80.303C47.1451 78.6972 46.6021 76.7445 46.2952 75H27.0832C25.9326 75 24.9998 74.0673 24.9998 72.9167C24.9998 71.7661 25.9326 70.8333 27.0832 70.8333H45.8704C45.8447 70.2113 45.8332 69.5905 45.8332 68.9789C45.8332 68.1805 45.8887 67.41 46.0037 66.6667H27.0832C25.9326 66.6667 24.9998 65.7339 24.9998 64.5833C24.9998 63.4327 25.9326 62.5 27.0832 62.5H47.4585C47.541 62.359 47.6267 62.2192 47.7159 62.0807C48.7208 60.5198 50.0283 59.322 51.3959 58.3333H43.7498C42.5992 58.3333 41.6665 57.4006 41.6665 56.25C41.6665 55.0994 42.5992 54.1667 43.7498 54.1667H64.5832C64.7119 54.1667 64.8378 54.1783 64.9601 54.2007C65.525 54.1778 66.0942 54.1667 66.6665 54.1667C70.827 54.1667 75.3628 54.4416 79.1665 56.2256V20.8333C79.1665 16.231 75.4355 12.5 70.8332 12.5ZM24.9998 22.9167C24.9998 21.7661 25.9326 20.8333 27.0832 20.8333H68.7498C69.9004 20.8333 70.8332 21.7661 70.8332 22.9167C70.8332 24.0673 69.9004 25 68.7498 25H27.0832C25.9326 25 24.9998 24.0673 24.9998 22.9167ZM43.7498 29.1667C42.5992 29.1667 41.6665 30.0994 41.6665 31.25C41.6665 32.4006 42.5992 33.3333 43.7498 33.3333H68.7498C69.9004 33.3333 70.8332 32.4006 70.8332 31.25C70.8332 30.0994 69.9004 29.1667 68.7498 29.1667L43.7498 29.1667ZM43.7498 37.5C42.5992 37.5 41.6665 38.4327 41.6665 39.5833C41.6665 40.7339 42.5992 41.6667 43.7498 41.6667H66.6665C67.8171 41.6667 68.7498 40.7339 68.7498 39.5833C68.7498 38.4327 67.8171 37.5 66.6665 37.5H43.7498ZM41.6665 47.9167C41.6665 46.7661 42.5992 45.8333 43.7498 45.8333H68.7498C69.9004 45.8333 70.8332 46.7661 70.8332 47.9167C70.8332 49.0673 69.9004 50 68.7498 50H43.7498C42.5992 50 41.6665 49.0673 41.6665 47.9167ZM24.9998 33.3333C24.9998 31.0321 26.8653 29.1667 29.1665 29.1667H33.3332C35.6343 29.1667 37.4998 31.0321 37.4998 33.3333V37.5C37.4998 39.8012 35.6343 41.6667 33.3332 41.6667H29.1665C26.8653 41.6667 24.9998 39.8012 24.9998 37.5V33.3333ZM29.1665 45.8333C26.8653 45.8333 24.9998 47.6988 24.9998 50V54.1667C24.9998 56.4679 26.8653 58.3333 29.1665 58.3333H33.3332C35.6343 58.3333 37.4998 56.4679 37.4998 54.1667V50C37.4998 47.6988 35.6343 45.8333 33.3332 45.8333H29.1665Z" fill="#2B2B2B"/>
<path fill-rule="evenodd" clip-rule="evenodd" d="M56.1953 83.9569C56.31 82.9974 56.5511 81.9723 56.7698 81.1859C54.512 80.6683 52.8107 79.7192 51.6826 78.0088C50.4339 76.1158 50 72.5608 50 68.9789C50 65.1229 51.6917 63.0693 54.6806 61.1347C57.6195 59.2325 61.7572 58.3334 66.6667 58.3334C71.4897 58.3334 75.675 58.7638 78.6527 60.6911C81.7336 62.6852 83.3333 66.1381 83.3333 71.6403C83.3333 74.4506 82.636 76.484 81.3872 77.9166C80.147 79.3394 78.4634 80.0531 76.7205 80.4343C74.9862 80.8137 73.0974 80.8827 71.385 80.9435C69.6257 81.006 68.0855 81.0608 66.8785 81.3646C64.2666 82.0221 62.6513 83.4204 61.4476 84.7043C61.1711 84.9992 60.9186 85.2856 60.6746 85.5623L60.5998 85.6471C60.338 85.9439 60.0775 86.237 59.8243 86.4902C59.358 86.9562 58.7188 87.5 57.8947 87.5C57.4568 87.5 57.0579 87.3419 56.7524 87.0332C56.4695 86.7474 56.3217 86.3888 56.2406 86.0668C56.0813 85.4347 56.1109 84.6629 56.1953 83.9569ZM57.1874 72.9167C58.6256 72.9167 59.7916 71.7508 59.7916 70.3125C59.7916 68.8743 58.6256 67.7084 57.1874 67.7084C55.7492 67.7084 54.5832 68.8743 54.5832 70.3125C54.5832 71.7508 55.7492 72.9167 57.1874 72.9167ZM69.1666 70.3125C69.1666 71.7508 68.0006 72.9167 66.5624 72.9167C65.1242 72.9167 63.9582 71.7508 63.9582 70.3125C63.9582 68.8743 65.1242 67.7084 66.5624 67.7084C68.0006 67.7084 69.1666 68.8743 69.1666 70.3125ZM75.9374 72.9167C77.3756 72.9167 78.5416 71.7508 78.5416 70.3125C78.5416 68.8743 77.3756 67.7084 75.9374 67.7084C74.4992 67.7084 73.3332 68.8743 73.3332 70.3125C73.3332 71.7508 74.4992 72.9167 75.9374 72.9167Z" fill="#2B2B2B"/>
</svg>
