<svg width="376" height="122" viewBox="0 0 376 122" fill="none" xmlns="http://www.w3.org/2000/svg">
<rect width="376" height="122" rx="61" fill="#EB2525"/>
<path d="M31.6364 85V38.4545H47.9091C51.1515 38.4545 53.8258 39.0152 55.9318 40.1364C58.0379 41.2424 59.6061 42.7348 60.6364 44.6136C61.6667 46.4773 62.1818 48.5455 62.1818 50.8182C62.1818 52.8182 61.8258 54.4697 61.1136 55.7727C60.4167 57.0758 59.4924 58.1061 58.3409 58.8636C57.2045 59.6212 55.9697 60.1818 54.6364 60.5455V61C56.0606 61.0909 57.4924 61.5909 58.9318 62.5C60.3712 63.4091 61.5758 64.7121 62.5455 66.4091C63.5152 68.1061 64 70.1818 64 72.6364C64 74.9697 63.4697 77.0682 62.4091 78.9318C61.3485 80.7955 59.6742 82.2727 57.3864 83.3636C55.0985 84.4545 52.1212 85 48.4545 85H31.6364ZM37.2727 80H48.4545C52.1364 80 54.75 79.2879 56.2955 77.8636C57.8561 76.4242 58.6364 74.6818 58.6364 72.6364C58.6364 71.0606 58.2348 69.6061 57.4318 68.2727C56.6288 66.9242 55.4848 65.8485 54 65.0455C52.5152 64.2273 50.7576 63.8182 48.7273 63.8182H37.2727V80ZM37.2727 58.9091H47.7273C49.4242 58.9091 50.9545 58.5758 52.3182 57.9091C53.697 57.2424 54.7879 56.303 55.5909 55.0909C56.4091 53.8788 56.8182 52.4545 56.8182 50.8182C56.8182 48.7727 56.1061 47.0379 54.6818 45.6136C53.2576 44.1742 51 43.4545 47.9091 43.4545H37.2727V58.9091ZM86.7159 85.7273C83.5644 85.7273 80.7992 84.9773 78.4205 83.4773C76.0568 81.9773 74.2083 79.8788 72.875 77.1818C71.5568 74.4848 70.8977 71.3333 70.8977 67.7273C70.8977 64.0909 71.5568 60.9167 72.875 58.2045C74.2083 55.4924 76.0568 53.3864 78.4205 51.8864C80.7992 50.3864 83.5644 49.6364 86.7159 49.6364C89.8674 49.6364 92.625 50.3864 94.9886 51.8864C97.3674 53.3864 99.2159 55.4924 100.534 58.2045C101.867 60.9167 102.534 64.0909 102.534 67.7273C102.534 71.3333 101.867 74.4848 100.534 77.1818C99.2159 79.8788 97.3674 81.9773 94.9886 83.4773C92.625 84.9773 89.8674 85.7273 86.7159 85.7273ZM86.7159 80.9091C89.1098 80.9091 91.0795 80.2955 92.625 79.0682C94.1705 77.8409 95.3144 76.2273 96.0568 74.2273C96.7992 72.2273 97.1705 70.0606 97.1705 67.7273C97.1705 65.3939 96.7992 63.2197 96.0568 61.2045C95.3144 59.1894 94.1705 57.5606 92.625 56.3182C91.0795 55.0758 89.1098 54.4545 86.7159 54.4545C84.322 54.4545 82.3523 55.0758 80.8068 56.3182C79.2614 57.5606 78.1174 59.1894 77.375 61.2045C76.6326 63.2197 76.2614 65.3939 76.2614 67.7273C76.2614 70.0606 76.6326 72.2273 77.375 74.2273C78.1174 76.2273 79.2614 77.8409 80.8068 79.0682C82.3523 80.2955 84.322 80.9091 86.7159 80.9091ZM124.903 85.7273C121.752 85.7273 118.987 84.9773 116.608 83.4773C114.244 81.9773 112.396 79.8788 111.062 77.1818C109.744 74.4848 109.085 71.3333 109.085 67.7273C109.085 64.0909 109.744 60.9167 111.062 58.2045C112.396 55.4924 114.244 53.3864 116.608 51.8864C118.987 50.3864 121.752 49.6364 124.903 49.6364C128.055 49.6364 130.813 50.3864 133.176 51.8864C135.555 53.3864 137.403 55.4924 138.722 58.2045C140.055 60.9167 140.722 64.0909 140.722 67.7273C140.722 71.3333 140.055 74.4848 138.722 77.1818C137.403 79.8788 135.555 81.9773 133.176 83.4773C130.813 84.9773 128.055 85.7273 124.903 85.7273ZM124.903 80.9091C127.297 80.9091 129.267 80.2955 130.812 79.0682C132.358 77.8409 133.502 76.2273 134.244 74.2273C134.987 72.2273 135.358 70.0606 135.358 67.7273C135.358 65.3939 134.987 63.2197 134.244 61.2045C133.502 59.1894 132.358 57.5606 130.812 56.3182C129.267 55.0758 127.297 54.4545 124.903 54.4545C122.509 54.4545 120.54 55.0758 118.994 56.3182C117.449 57.5606 116.305 59.1894 115.562 61.2045C114.82 63.2197 114.449 65.3939 114.449 67.7273C114.449 70.0606 114.82 72.2273 115.562 74.2273C116.305 76.2273 117.449 77.8409 118.994 79.0682C120.54 80.2955 122.509 80.9091 124.903 80.9091ZM153.909 72.2727L153.818 65.6364H154.909L170.182 50.0909H176.818L160.545 66.5455H160.091L153.909 72.2727ZM148.909 85V38.4545H154.273V85H148.909ZM171.091 85L157.455 67.7273L161.273 64L177.909 85H171.091ZM178.278 43.4545V38.4545H213.188V43.4545H198.551V85H192.915V43.4545H178.278ZM217.534 85V50.0909H222.716V55.3636H223.08C223.716 53.6364 224.867 52.2348 226.534 51.1591C228.201 50.0833 230.08 49.5455 232.17 49.5455C232.564 49.5455 233.057 49.553 233.648 49.5682C234.239 49.5833 234.686 49.6061 234.989 49.6364V55.0909C234.807 55.0455 234.39 54.9773 233.739 54.8864C233.102 54.7803 232.428 54.7273 231.716 54.7273C230.019 54.7273 228.504 55.0833 227.17 55.7955C225.852 56.4924 224.807 57.4621 224.034 58.7045C223.277 59.9318 222.898 61.3333 222.898 62.9091V85H217.534ZM251.619 85.8182C249.407 85.8182 247.4 85.4015 245.597 84.5682C243.794 83.7197 242.362 82.5 241.301 80.9091C240.241 79.303 239.71 77.3636 239.71 75.0909C239.71 73.0909 240.104 71.4697 240.892 70.2273C241.68 68.9697 242.733 67.9848 244.051 67.2727C245.369 66.5606 246.824 66.0303 248.415 65.6818C250.021 65.3182 251.634 65.0303 253.256 64.8182C255.377 64.5455 257.097 64.3409 258.415 64.2045C259.748 64.053 260.718 63.803 261.324 63.4545C261.945 63.1061 262.256 62.5 262.256 61.6364V61.4545C262.256 59.2121 261.642 57.4697 260.415 56.2273C259.203 54.9848 257.362 54.3636 254.892 54.3636C252.331 54.3636 250.324 54.9242 248.869 56.0455C247.415 57.1667 246.392 58.3636 245.801 59.6364L240.71 57.8182C241.619 55.697 242.831 54.0455 244.347 52.8636C245.877 51.6667 247.544 50.8333 249.347 50.3636C251.165 49.8788 252.953 49.6364 254.71 49.6364C255.831 49.6364 257.119 49.7727 258.574 50.0455C260.044 50.303 261.46 50.8409 262.824 51.6591C264.203 52.4773 265.347 53.7121 266.256 55.3636C267.165 57.0152 267.619 59.2273 267.619 62V85H262.256V80.2727H261.983C261.619 81.0303 261.013 81.8409 260.165 82.7045C259.316 83.5682 258.188 84.303 256.778 84.9091C255.369 85.5152 253.65 85.8182 251.619 85.8182ZM252.438 81C254.559 81 256.347 80.5833 257.801 79.75C259.271 78.9167 260.377 77.8409 261.119 76.5227C261.877 75.2045 262.256 73.8182 262.256 72.3636V67.4545C262.028 67.7273 261.528 67.9773 260.756 68.2045C259.998 68.4167 259.119 68.6061 258.119 68.7727C257.134 68.9242 256.172 69.0606 255.233 69.1818C254.309 69.2879 253.559 69.3788 252.983 69.4545C251.589 69.6364 250.286 69.9318 249.074 70.3409C247.877 70.7348 246.907 71.3333 246.165 72.1364C245.438 72.9242 245.074 74 245.074 75.3636C245.074 77.2273 245.763 78.6364 247.142 79.5909C248.536 80.5303 250.301 81 252.438 81ZM290.591 85.7273C287.682 85.7273 285.114 84.9924 282.886 83.5227C280.659 82.0379 278.917 79.947 277.659 77.25C276.402 74.5379 275.773 71.3333 275.773 67.6364C275.773 63.9697 276.402 60.7879 277.659 58.0909C278.917 55.3939 280.667 53.3106 282.909 51.8409C285.152 50.3712 287.742 49.6364 290.682 49.6364C292.955 49.6364 294.75 50.0152 296.068 50.7727C297.402 51.5152 298.417 52.3636 299.114 53.3182C299.826 54.2576 300.379 55.0303 300.773 55.6364H301.227V38.4545H306.591V85H301.409V79.6364H300.773C300.379 80.2727 299.818 81.0758 299.091 82.0455C298.364 83 297.326 83.8561 295.977 84.6136C294.629 85.3561 292.833 85.7273 290.591 85.7273ZM291.318 80.9091C293.47 80.9091 295.288 80.3485 296.773 79.2273C298.258 78.0909 299.386 76.5227 300.159 74.5227C300.932 72.5076 301.318 70.1818 301.318 67.5455C301.318 64.9394 300.939 62.6591 300.182 60.7045C299.424 58.7348 298.303 57.2045 296.818 56.1136C295.333 55.0076 293.5 54.4545 291.318 54.4545C289.045 54.4545 287.152 55.0379 285.636 56.2045C284.136 57.3561 283.008 58.9242 282.25 60.9091C281.508 62.8788 281.136 65.0909 281.136 67.5455C281.136 70.0303 281.515 72.2879 282.273 74.3182C283.045 76.3333 284.182 77.9394 285.682 79.1364C287.197 80.3182 289.076 80.9091 291.318 80.9091ZM331.795 85.7273C328.432 85.7273 325.53 84.9848 323.091 83.5C320.667 82 318.795 79.9091 317.477 77.2273C316.174 74.5303 315.523 71.3939 315.523 67.8182C315.523 64.2424 316.174 61.0909 317.477 58.3636C318.795 55.6212 320.629 53.4848 322.977 51.9545C325.341 50.4091 328.098 49.6364 331.25 49.6364C333.068 49.6364 334.864 49.9394 336.636 50.5455C338.409 51.1515 340.023 52.1364 341.477 53.5C342.932 54.8485 344.091 56.6364 344.955 58.8636C345.818 61.0909 346.25 63.8333 346.25 67.0909V69.3636H319.341V64.7273H340.795C340.795 62.7576 340.402 61 339.614 59.4545C338.841 57.9091 337.735 56.6894 336.295 55.7955C334.871 54.9015 333.189 54.4545 331.25 54.4545C329.114 54.4545 327.265 54.9848 325.705 56.0455C324.159 57.0909 322.97 58.4545 322.136 60.1364C321.303 61.8182 320.886 63.6212 320.886 65.5455V68.6364C320.886 71.2727 321.341 73.5076 322.25 75.3409C323.174 77.1591 324.455 78.5455 326.091 79.5C327.727 80.4394 329.629 80.9091 331.795 80.9091C333.205 80.9091 334.477 80.7121 335.614 80.3182C336.765 79.9091 337.758 79.303 338.591 78.5C339.424 77.6818 340.068 76.6667 340.523 75.4545L345.705 76.9091C345.159 78.6667 344.242 80.2121 342.955 81.5455C341.667 82.8636 340.076 83.8939 338.182 84.6364C336.288 85.3636 334.159 85.7273 331.795 85.7273Z" fill="white"/>
</svg>
